<svg id="sticker-symbols" data-name="Layer 1" xmlns="http://www.w3.org/2000/svg" xmlns:xlink="http://www.w3.org/1999/xlink" width="118.915" height="86.521" viewBox="0 0 118.915 86.521">
	<defs>
		<title>sticker-do</title>
		<style>
			#sticker-symbols {
				width: 0;
				height: 0;
			}
			.cls-1, .cls-3, .cls-6 {
				fill: none;
			}

			.cls-2 {
				clip-path: url(#clip-path);
			}

			.cls-3, .cls-6 {
				stroke: black;
			}

			.cls-3 {
				stroke-width: 1px;
			}

			.cls-4 {
				fill: #fff;
			}

			.cls-5 {
				fill: url(#jazdow-pattern);
			}

			.cls-6 {
				stroke-miterlimit: 10;
			}
		</style>

		<clipPath id="clip-path">
			<rect id="SVGID" class="cls-1" width="37.801" height="37.8"/>
		</clipPath>
		
		<pattern id="jazdow-pattern" data-name="432-K" width="37" height="37" patternUnits="userSpaceOnUse" viewBox="0 0 37.801 37.8">
			<rect class="cls-1" width="37.801" height="37.8"/>
			<g class="cls-2">
				<path class="cls-3" d="M17.441,3.358A21.578,21.578,0,0,0,15.269,0"/>
				<path class="cls-3" d="M23.5,0a19.979,19.979,0,0,1,.817,2.108c1.375,4.25,3.5,16.75,12,21.75"/>
				<path class="cls-3" d="M1.223,0A50.936,50.936,0,0,1,6.066,2.983"/>
				<path class="cls-3" d="M14.941,7.983C12.231,5.374,9.762,3.489,7.535,0"/>
				<path class="cls-3" d="M22.566,17.733a27.321,27.321,0,0,1-1.875-5.125c-1-3.375-6.625-9.5-8.75-11.5"/>
				<path class="cls-3" d="M27.332,0c0.638,1.673,1.243,3.415,1.733,4.983a23.861,23.861,0,0,0,5.875,9.5"/>
				<path class="cls-3" d="M33.066,2.608A22.425,22.425,0,0,1,30.88,0"/>
				<path class="cls-3" d="M35.191,0.983A30.525,30.525,0,0,1,37.8,3.166"/>
				<path class="cls-3" d="M13.941,19.983C9.6,15.205,5.441,8.164,0,3.119"/>
				<path class="cls-3" d="M3.566,18.816s0.334,1.5,1.667,6,6.583,9.49,6.583,9.49A22.987,22.987,0,0,1,15.25,37.8"/>
				<path class="cls-3" d="M17.941,29.557c2.059,2.676,4.116,5.1,5.547,8.243"/>
				<path class="cls-3" d="M0,37.049c0.395,0.263.79,0.512,1.185,0.751"/>
				<path class="cls-3" d="M5.941,34.932A26.909,26.909,0,0,0,7.521,37.8"/>
				<path class="cls-3" d="M27.323,37.8a44.1,44.1,0,0,0-2.883-6.368"/>
				<path class="cls-3" d="M25.566,22.432a45.806,45.806,0,0,1,7.25,9.625A14.78,14.78,0,0,0,37.8,37.082"/>
				<path class="cls-3" d="M31.941,5.233l1.875,1.875A25.092,25.092,0,0,1,37.8,12.047"/>
				<path class="cls-3" d="M19.816,1.108a29.3,29.3,0,0,1,1,3.625c1.25,2,3.75,11.375,6.125,14.375s9,10.25,9,10.25"/>
				<path class="cls-3" d="M35.191,17.483a43.53,43.53,0,0,1,2.61,3.494"/>
				<path class="cls-3" d="M3.066,17.233C1.9,15.186.972,13.494,0,11.967"/>
				<path class="cls-3" d="M5.566,33.483c-0.125-.625-2.5-5.5-3.25-8.125A17.644,17.644,0,0,0,0,20.9"/>
				<path class="cls-3" d="M1.441,8.858c5.542,4.541,4.379,12.816,10.125,20,5.3,6.625,7.625,7.5,7.625,7.5"/>
				<path class="cls-3" d="M7.566,4.483a42.743,42.743,0,0,1,5.875,7.875c1.75,3.5,7.25,13.75,9.875,17.5"/>
				<path class="cls-3" d="M10.066,19.733c1.834,2.333,1.334,2.5,6.667,8.666"/>
				<path class="cls-3" d="M17.233,11.983s2.5,6.5,3.5,7.666a29.962,29.962,0,0,1,2.208,3.157c1.625,1.25,3.625,6.25,5,9.75A24.3,24.3,0,0,0,30.862,37.8"/>
				<path class="cls-3" d="M36.566,29.983c0.442,0.477.85,0.945,1.235,1.408"/>
				<path class="cls-3" d="M4.191,36.483c-1.565-1.565-2.723-3.233-4.19-5"/>
			</g>
		</pattern>
		<symbol id="ot">

			<g>
				<path class="cls-4" d="M191.12,50.927c0-19.182,12.847-31.678,30.267-31.678,17.51,0,30.267,12.5,30.267,31.678,0,19.091-12.757,31.672-30.267,31.672C203.967,82.6,191.12,70.018,191.12,50.927Zm48.218,0c0-12.32-7.742-20.415-17.951-20.415s-17.951,8.1-17.951,20.415,7.746,20.41,17.951,20.41S239.338,63.243,239.338,50.927Z" transform="translate(-190.62 -18.75)"/>
				<path class="cls-5" d="M191.12,50.927c0-19.182,12.847-31.678,30.267-31.678,17.51,0,30.267,12.5,30.267,31.678,0,19.091-12.757,31.672-30.267,31.672C203.967,82.6,191.12,70.018,191.12,50.927Zm48.218,0c0-12.32-7.742-20.415-17.951-20.415s-17.951,8.1-17.951,20.415,7.746,20.41,17.951,20.41S239.338,63.243,239.338,50.927Z" transform="translate(-190.62 -18.75)"/>
				<path class="cls-6" d="M191.12,50.927c0-19.182,12.847-31.678,30.267-31.678,17.51,0,30.267,12.5,30.267,31.678,0,19.091-12.757,31.672-30.267,31.672C203.967,82.6,191.12,70.018,191.12,50.927Zm48.218,0c0-12.32-7.742-20.415-17.951-20.415s-17.951,8.1-17.951,20.415,7.746,20.41,17.951,20.41S239.338,63.243,239.338,50.927Z" transform="translate(-190.62 -18.75)"/>
			</g>
			<g>
				<polygon class="cls-4" points="110.852 12.379 93.08 12.379 93.08 62.972 80.846 62.972 80.846 12.379 63.075 12.379 63.075 1.38 110.852 1.38 110.852 12.379"/>
				<polygon class="cls-5" points="110.852 12.379 93.08 12.379 93.08 62.972 80.846 62.972 80.846 12.379 63.075 12.379 63.075 1.38 110.852 1.38 110.852 12.379"/>
				<polygon class="cls-6" points="110.852 12.379 93.08 12.379 93.08 62.972 80.846 62.972 80.846 12.379 63.075 12.379 63.075 1.38 110.852 1.38 110.852 12.379"/>
			</g>
		</symbol>

		<symbol id="war">

			<g>
				<polygon class="cls-4" points="68.395 62.092 55.462 62.092 42.436 28.48 29.417 62.092 16.481 62.092 0.645 0.5 12.875 0.5 24.223 45.725 36.192 15.019 48.773 15.019 60.566 45.725 72.001 0.5 84.234 0.5 68.395 62.092"/>
				<polygon class="cls-5" points="68.395 62.092 55.462 62.092 42.436 28.48 29.417 62.092 16.481 62.092 0.645 0.5 12.875 0.5 24.223 45.725 36.192 15.019 48.773 15.019 60.566 45.725 72.001 0.5 84.234 0.5 68.395 62.092"/>
				<polygon class="cls-6" points="68.395 62.092 55.462 62.092 42.436 28.48 29.417 62.092 16.481 62.092 0.645 0.5 12.875 0.5 24.223 45.725 36.192 15.019 48.773 15.019 60.566 45.725 72.001 0.5 84.234 0.5 68.395 62.092"/>
			</g>
			<g>
				<path class="cls-4" d="M324.593,92.131H310.517l-21.3,61.592h12.847l4.488-13.374h22l4.488,13.374h12.843Zm-14.431,37.483,7.391-22,7.391,22H310.162Z" transform="translate(-207.789 -91.631)"/>
				<path class="cls-5" d="M324.593,92.131H310.517l-21.3,61.592h12.847l4.488-13.374h22l4.488,13.374h12.843Zm-14.431,37.483,7.391-22,7.391,22H310.162Z" transform="translate(-207.789 -91.631)"/>
				<path class="cls-6" d="M324.593,92.131H310.517l-21.3,61.592h12.847l4.488-13.374h22l4.488,13.374h12.843Zm-14.431,37.483,7.391-22,7.391,22H310.162Z" transform="translate(-207.789 -91.631)"/>
			</g>
			<g>
				<path class="cls-4" d="M383.206,153.722L363.5,131.814v21.908H351.882V92.131h21.292c13.374,0,20.414,7.479,20.414,18.478s-6.861,16.894-18.392,17.42l23.231,25.693h-15.22ZM363.5,102.954v15.838H373c5.807,0,8.976-3.169,8.976-8.008s-3.169-7.83-8.976-7.83h-9.5Z" transform="translate(-207.789 -91.631)"/>
				<path class="cls-5" d="M383.206,153.722L363.5,131.814v21.908H351.882V92.131h21.292c13.374,0,20.414,7.479,20.414,18.478s-6.861,16.894-18.392,17.42l23.231,25.693h-15.22ZM363.5,102.954v15.838H373c5.807,0,8.976-3.169,8.976-8.008s-3.169-7.83-8.976-7.83h-9.5Z" transform="translate(-207.789 -91.631)"/>
				<path class="cls-6" d="M383.206,153.722L363.5,131.814v21.908H351.882V92.131h21.292c13.374,0,20.414,7.479,20.414,18.478s-6.861,16.894-18.392,17.42l23.231,25.693h-15.22ZM363.5,102.954v15.838H373c5.807,0,8.976-3.169,8.976-8.008s-3.169-7.83-8.976-7.83h-9.5Z" transform="translate(-207.789 -91.631)"/>
			</g>
		</symbol>

		<symbol id="ty">

			<g>
				<polygon class="cls-4" points="48.277 11.499 30.502 11.499 30.502 62.092 18.272 62.092 18.272 11.499 0.5 11.499 0.5 0.5 48.277 0.5 48.277 11.499"/>
				<polygon class="cls-5" points="48.277 11.499 30.502 11.499 30.502 62.092 18.272 62.092 18.272 11.499 0.5 11.499 0.5 0.5 48.277 0.5 48.277 11.499"/>
				<polygon class="cls-6" points="48.277 11.499 30.502 11.499 30.502 62.092 18.272 62.092 18.272 11.499 0.5 11.499 0.5 0.5 48.277 0.5 48.277 11.499"/>
			</g>
			<g>
				<polygon class="cls-4" points="84.8 34.638 84.8 62.092 72.831 62.092 72.831 34.638 52.858 0.5 65.881 0.5 78.813 22.408 91.66 0.5 104.682 0.5 84.8 34.638"/>
				<polygon class="cls-5" points="84.8 34.638 84.8 62.092 72.831 62.092 72.831 34.638 52.858 0.5 65.881 0.5 78.813 22.408 91.66 0.5 104.682 0.5 84.8 34.638"/>
				<polygon class="cls-6" points="84.8 34.638 84.8 62.092 72.831 62.092 72.831 34.638 52.858 0.5 65.881 0.5 78.813 22.408 91.66 0.5 104.682 0.5 84.8 34.638"/>
			</g>
		</symbol>

		<symbol id="jaz">

			<g>
				<polygon class="cls-4" points="24.684 0.5 24.684 43.614 14.476 62.092 0.841 62.092 12.454 40.71 12.454 0.5 24.684 0.5"/>
				<polygon class="cls-5" points="24.684 0.5 24.684 43.614 14.476 62.092 0.841 62.092 12.454 40.71 12.454 0.5 24.684 0.5"/>
				<polygon class="cls-6" points="24.684 0.5 24.684 43.614 14.476 62.092 0.841 62.092 12.454 40.71 12.454 0.5 24.684 0.5"/>
			</g>
			<g>
				<path class="cls-4" d="M269.078,282.049h-22l-4.488,13.374H229.746l21.3-61.592h14.076l21.292,61.592H273.566Zm-3.61-10.735-7.391-22-7.391,22h14.782Z" transform="translate(-201.714 -233.33)"/>
				<path class="cls-5" d="M269.078,282.049h-22l-4.488,13.374H229.746l21.3-61.592h14.076l21.292,61.592H273.566Zm-3.61-10.735-7.391-22-7.391,22h14.782Z" transform="translate(-201.714 -233.33)"/>
				<path class="cls-6" d="M269.078,282.049h-22l-4.488,13.374H229.746l21.3-61.592h14.076l21.292,61.592H273.566Zm-3.61-10.735-7.391-22-7.391,22h14.782Z" transform="translate(-201.714 -233.33)"/>
			</g>
			<g>
				<polygon class="cls-4" points="135.126 51.095 135.126 62.092 89.456 62.092 89.456 54.26 119.462 11.501 91.04 11.501 91.04 0.5 135.036 0.5 135.036 8.332 105.031 51.095 135.126 51.095"/>
				<polygon class="cls-5" points="135.126 51.095 135.126 62.092 89.456 62.092 89.456 54.26 119.462 11.501 91.04 11.501 91.04 0.5 135.036 0.5 135.036 8.332 105.031 51.095 135.126 51.095"/>
				<polygon class="cls-6" points="135.126 51.095 135.126 62.092 89.456 62.092 89.456 54.26 119.462 11.501 91.04 11.501 91.04 0.5 135.036 0.5 135.036 8.332 105.031 51.095 135.126 51.095"/>
			</g>
		</symbol>

		<symbol id="do">
			<g>
				<path class="cls-4" d="M330.836,361.911c0,17.069-8.886,31.5-28.683,31.5H280.421V331.82h21.733C321.95,331.82,330.836,344.756,330.836,361.911Zm-12.316-.086c0-10.646-4.925-19.184-16.367-19.184h-9.768V382.59h9.768C313.595,382.59,318.52,372.557,318.52,361.825Z" transform="translate(-279.921 -308.268)"/>
				<path class="cls-5" d="M330.836,361.911c0,17.069-8.886,31.5-28.683,31.5H280.421V331.82h21.733C321.95,331.82,330.836,344.756,330.836,361.911Zm-12.316-.086c0-10.646-4.925-19.184-16.367-19.184h-9.768V382.59h9.768C313.595,382.59,318.52,372.557,318.52,361.825Z" transform="translate(-279.921 -308.268)"/>
				<path class="cls-6" d="M330.836,361.911c0,17.069-8.886,31.5-28.683,31.5H280.421V331.82h21.733C321.95,331.82,330.836,344.756,330.836,361.911Zm-12.316-.086c0-10.646-4.925-19.184-16.367-19.184h-9.768V382.59h9.768C313.595,382.59,318.52,372.557,318.52,361.825Z" transform="translate(-279.921 -308.268)"/>
			</g>
			<g>
				<path class="cls-4" d="M337.8,362.617c0-19.184,12.847-31.676,30.267-31.676,17.51,0,30.267,12.492,30.267,31.676,0,19.091-12.757,31.672-30.267,31.672C350.648,394.289,337.8,381.708,337.8,362.617Zm48.218,0c0-12.32-7.746-20.414-17.951-20.414s-17.951,8.094-17.951,20.414,7.742,20.41,17.951,20.41S386.019,374.933,386.019,362.617Zm0.523-53.849-14.693,17.51H359.975l13.9-17.51h12.667Z" transform="translate(-279.921 -308.268)"/>
				<path class="cls-5" d="M337.8,362.617c0-19.184,12.847-31.676,30.267-31.676,17.51,0,30.267,12.492,30.267,31.676,0,19.091-12.757,31.672-30.267,31.672C350.648,394.289,337.8,381.708,337.8,362.617Zm48.218,0c0-12.32-7.746-20.414-17.951-20.414s-17.951,8.094-17.951,20.414,7.742,20.41,17.951,20.41S386.019,374.933,386.019,362.617Zm0.523-53.849-14.693,17.51H359.975l13.9-17.51h12.667Z" transform="translate(-279.921 -308.268)"/>
				<path class="cls-6" d="M337.8,362.617c0-19.184,12.847-31.676,30.267-31.676,17.51,0,30.267,12.492,30.267,31.676,0,19.091-12.757,31.672-30.267,31.672C350.648,394.289,337.8,381.708,337.8,362.617Zm48.218,0c0-12.32-7.746-20.414-17.951-20.414s-17.951,8.094-17.951,20.414,7.742,20.41,17.951,20.41S386.019,374.933,386.019,362.617Zm0.523-53.849-14.693,17.51H359.975l13.9-17.51h12.667Z" transform="translate(-279.921 -308.268)"/>
			</g>
		</symbol>

		<symbol id="w">
			<g>
				<polygon class="cls-4" points="68.398 62.092 55.462 62.092 42.44 28.48 29.417 62.092 16.485 62.092 0.645 0.5 12.879 0.5 24.227 45.725 36.196 15.017 48.773 15.017 60.566 45.725 72.004 0.5 84.234 0.5 68.398 62.092"/>
				<polygon class="cls-5" points="68.398 62.092 55.462 62.092 42.44 28.48 29.417 62.092 16.485 62.092 0.645 0.5 12.879 0.5 24.227 45.725 36.196 15.017 48.773 15.017 60.566 45.725 72.004 0.5 84.234 0.5 68.398 62.092"/>
				<polygon class="cls-6" points="68.398 62.092 55.462 62.092 42.44 28.48 29.417 62.092 16.485 62.092 0.645 0.5 12.879 0.5 24.227 45.725 36.196 15.017 48.773 15.017 60.566 45.725 72.004 0.5 84.234 0.5 68.398 62.092"/>
			</g>
		</symbol>

	</defs>
</svg>
