<?xml version="1.0" encoding="utf-8"?>
<!-- Generator: Adobe Illustrator 19.2.1, SVG Export Plug-In . SVG Version: 6.00 Build 0)  -->
<svg version="1.1" id="Layer_1" xmlns="http://www.w3.org/2000/svg" xmlns:xlink="http://www.w3.org/1999/xlink" x="0px" y="0px"
	 width="213px" height="35px" viewBox="0 0 213 35" style="enable-background:new 0 0 213 35;" xml:space="preserve">
<style type="text/css">
	.st0{enable-background:new    ;}
	.st1{fill:#5200CC;}
	.st2{fill:none;stroke:#5200CC;stroke-width:4;}
	.st3{fill:none;stroke:#5200CC;stroke-width:4;stroke-linecap:square;}
</style>
<title>CA2A5B17-3BC5-46B3-B3E3-5965A5BFF968</title>
<desc>Created with sketchtool.</desc>
<g class="st0">
	<path class="st1" d="M1.3,15V5.5L0.2,6V4.5L1.4,4h1.5v11H1.3z"/>
	<path class="st1" d="M6.3,13.5c0.3,0.2,0.7,0.3,1.2,0.3c0.7,0,1.2-0.2,1.5-0.6s0.4-1,0.4-1.6v-1.1C9.3,10.6,9,10.8,8.7,11
		s-0.8,0.3-1.2,0.3c-1.1,0-1.9-0.3-2.4-0.9C4.5,9.8,4.2,8.9,4.2,7.8V7.2c0-0.5,0.1-1,0.2-1.4S4.8,5,5.1,4.7C5.4,4.4,5.7,4.1,6.2,4
		c0.4-0.2,0.9-0.3,1.4-0.3c1.2,0,2,0.3,2.6,1C10.7,5.3,11,6.1,11,7.2v4.3c0,0.5-0.1,1-0.2,1.5c-0.1,0.5-0.3,0.8-0.6,1.2
		S9.6,14.8,9.1,15c-0.4,0.2-1,0.3-1.6,0.3c-0.4,0-0.8,0-1.1-0.1c-0.3-0.1-0.6-0.2-0.8-0.3S5.1,14.5,5,14.3S4.7,14,4.6,13.8l1.1-0.9
		C5.8,13.1,6.1,13.3,6.3,13.5z M9,9.3c0.3-0.4,0.5-0.8,0.5-1.4V7.2c0-0.6-0.1-1.1-0.4-1.5C8.7,5.3,8.3,5.2,7.6,5.2
		C7,5.2,6.5,5.3,6.2,5.7C6,6.1,5.8,6.6,5.8,7.2v0.6c0,0.6,0.1,1.1,0.4,1.4S7,9.8,7.6,9.8C8.3,9.8,8.7,9.7,9,9.3z"/>
	<path class="st1" d="M18.4,15h-1.5v-3.5H12v-1.3L16.8,4h1.5v6.2h1.3v1.4h-1.3V15H18.4z M16.9,10.1v-4l-3.1,4H16.9z"/>
	<path class="st1" d="M22.5,13.2c0.3,0.3,0.7,0.5,1.3,0.5c0.6,0,1.1-0.2,1.4-0.6c0.3-0.4,0.5-0.9,0.5-1.5v-0.4
		c0-0.6-0.1-1.1-0.4-1.5s-0.7-0.6-1.4-0.6c-0.2,0-0.4,0-0.6,0.1S23,9.3,22.8,9.4s-0.2,0.2-0.3,0.3c-0.1,0.1-0.2,0.2-0.2,0.3h-1.5
		V3.9h5.9v1.4h-4.4v3.1C22.4,8.2,22.6,8.1,23,8c0.3-0.1,0.7-0.2,1.2-0.2c1.1,0,1.8,0.3,2.3,0.9s0.7,1.5,0.7,2.6v0.4
		c0,0.5-0.1,1-0.2,1.4s-0.4,0.8-0.6,1.1s-0.6,0.6-1.1,0.8c-0.4,0.2-0.9,0.3-1.5,0.3s-1.1-0.1-1.5-0.3s-0.8-0.4-1-0.7
		c-0.3-0.3-0.5-0.6-0.6-1s-0.2-0.8-0.2-1.3H22C22,12.4,22.2,12.9,22.5,13.2z"/>
</g>
<g class="st0">
	<path class="st1" d="M186.5,13.6l3.7-4.2c0.4-0.4,0.7-0.8,0.9-1.2c0.2-0.4,0.3-0.8,0.3-1.3s-0.1-1-0.4-1.3s-0.7-0.5-1.2-0.5
		c-0.3,0-0.6,0.1-0.8,0.2s-0.4,0.3-0.5,0.4s-0.2,0.4-0.2,0.6s-0.1,0.4-0.1,0.6h-1.6c0-0.4,0.1-0.8,0.2-1.2s0.3-0.7,0.5-1.1
		c0.2-0.3,0.6-0.6,1-0.8s0.9-0.3,1.5-0.3c0.5,0,1,0.1,1.4,0.2c0.4,0.2,0.8,0.4,1,0.7s0.5,0.6,0.6,1s0.2,0.8,0.2,1.3
		c0,0.7-0.1,1.3-0.4,1.8c-0.3,0.5-0.7,1-1.1,1.6l-3,3.3h4.7V15h-6.6L186.5,13.6L186.5,13.6z"/>
	<path class="st1" d="M200.8,13.1c-0.2,0.4-0.4,0.8-0.7,1.1s-0.7,0.5-1.1,0.7c-0.4,0.2-0.9,0.3-1.4,0.3c-1.2,0-2-0.3-2.6-1
		c-0.5-0.6-0.8-1.5-0.8-2.6V7.2c0-1.1,0.3-1.9,0.8-2.6c0.6-0.6,1.4-1,2.6-1c0.5,0,1,0.1,1.4,0.3s0.8,0.4,1.1,0.7s0.5,0.7,0.7,1.1
		c0.1,0.4,0.2,0.9,0.2,1.4v4.4C201,12.2,200.9,12.7,200.8,13.1z M199,5.7c-0.3-0.4-0.8-0.6-1.4-0.6c-0.6,0-1.1,0.2-1.4,0.6
		c-0.3,0.4-0.4,0.9-0.4,1.5v4.5c0,0.6,0.1,1.1,0.4,1.5c0.3,0.4,0.8,0.6,1.4,0.6c0.6,0,1.1-0.2,1.4-0.6c0.3-0.4,0.5-0.9,0.5-1.5V7.2
		C199.5,6.6,199.3,6.1,199,5.7z"/>
	<path class="st1" d="M203.1,15V5.5L202,6V4.5l1.2-0.5h1.5v11H203.1z"/>
	<path class="st1" d="M210.9,5.4c-0.3-0.2-0.7-0.3-1.1-0.3c-0.4,0-0.7,0.1-0.9,0.2s-0.5,0.3-0.6,0.5S208,6.2,208,6.5
		s-0.1,0.6-0.1,0.9v1.1c0.1-0.2,0.4-0.4,0.8-0.6s0.8-0.3,1.3-0.3c1.1,0,1.9,0.3,2.4,0.9s0.8,1.5,0.8,2.6v0.6c0,0.5-0.1,1-0.2,1.4
		c-0.1,0.4-0.4,0.8-0.7,1.1s-0.6,0.6-1.1,0.7c-0.4,0.2-0.9,0.3-1.4,0.3c-0.6,0-1.1-0.1-1.5-0.2s-0.8-0.4-1.1-0.7s-0.5-0.7-0.6-1.1
		c-0.1-0.4-0.2-0.9-0.2-1.4V7.4c0-0.5,0.1-1,0.2-1.4c0.1-0.5,0.3-0.8,0.6-1.2c0.3-0.3,0.7-0.6,1.1-0.8c0.4-0.2,1-0.3,1.6-0.3
		c0.4,0,0.8,0,1.1,0.1s0.6,0.2,0.8,0.3s0.4,0.3,0.6,0.5s0.3,0.3,0.4,0.5L211.7,6C211.4,5.8,211.2,5.6,210.9,5.4z M208.2,9.6
		c-0.3,0.4-0.5,0.8-0.5,1.4v0.7c0,0.6,0.1,1.1,0.4,1.5s0.8,0.6,1.4,0.6c0.6,0,1.1-0.2,1.4-0.6c0.3-0.4,0.5-0.9,0.5-1.5v-0.6
		c0-0.6-0.1-1.1-0.4-1.5c-0.3-0.4-0.7-0.5-1.4-0.5C209,9.1,208.6,9.3,208.2,9.6z"/>
</g>
<ellipse id="Oval" class="st2" cx="9.5" cy="26.5" rx="6.5" ry="6.5"/>
<circle id="Oval-Copy" class="st2" cx="101.5" cy="26.5" r="6.5"/>
<circle id="Oval-Copy-2" class="st2" cx="193.5" cy="26.5" r="6.5"/>
<path id="Line" class="st3" d="M17.2,26.5h76.3"/>
<path id="Line-Copy-3" class="st3" d="M109.5,26.5h77.3"/>
</svg>
