<?xml version="1.0" encoding="utf-8"?>
<!-- Generator: Adobe Illustrator 19.2.1, SVG Export Plug-In . SVG Version: 6.00 Build 0)  -->
<svg version="1.1" id="Layer_1" xmlns="http://www.w3.org/2000/svg" xmlns:xlink="http://www.w3.org/1999/xlink" x="0px" y="0px"
	 width="130px" height="66px" viewBox="0 0 130 66" style="enable-background:new 0 0 130 66;" xml:space="preserve">
<style type="text/css">
	.st0{fill:#5200CC;}
	.st1{fill:none;stroke:#5200CC;stroke-width:2;stroke-miterlimit:10;stroke-dasharray:2,5;}
	.st2{fill:none;stroke:#5200CC;stroke-width:3;stroke-miterlimit:10;}
</style>
<g>
	<g>
		<path class="st0" d="M40.7,41.7c-0.3,0-0.6-0.1-0.8-0.2L10.7,26.3c-0.5-0.2-0.8-0.7-0.9-1.2c-0.1-0.5,0-1.1,0.3-1.5L20.3,9.8
			c0.5-0.7,1.5-0.9,2.3-0.5l6.2,3.2l23,11.9c0.5,0.2,0.8,0.7,0.9,1.2s0,1.1-0.3,1.5L42.1,40.9C41.8,41.4,41.2,41.7,40.7,41.7z
			 M14.3,24.1l25.9,13.4l8-10.8L22.3,13.3L14.3,24.1z"/>
	</g>
	<g>
		<path class="st0" d="M40.7,48.8c-0.3,0-0.6-0.1-0.8-0.2L10.7,33.5c-0.6-0.3-1-0.9-1-1.6v-7.2c0-0.6,0.3-1.2,0.9-1.6
			c0.5-0.3,1.2-0.4,1.8-0.1l29.2,15.2c0.6,0.3,1,0.9,1,1.6V47c0,0.6-0.3,1.2-0.9,1.6C41.3,48.7,41,48.8,40.7,48.8z M13.3,30.7
			L38.8,44v-3L13.3,27.7V30.7z"/>
	</g>
	<g>
		<path class="st0" d="M61.2,28.5L61.2,28.5l-10.4-0.6c-0.3,0-0.5-0.1-0.7-0.2L20.9,12.6c-0.8-0.4-1.1-1.3-0.9-2.1s1-1.4,1.9-1.3
			l10.3,0.6c0.3,0,0.5,0.1,0.7,0.2l29.2,15c0.8,0.4,1.2,1.3,0.9,2.1C62.8,28,62,28.5,61.2,28.5z M51.4,24.3l1.4,0.1L31.6,13.3
			l-1.4-0.1L51.4,24.3z"/>
	</g>
	<g>
		<path class="st0" d="M40.7,48.8c-0.3,0-0.6-0.1-0.9-0.2c-0.6-0.3-1-0.9-1-1.6v-7.2c0-0.4,0.1-0.8,0.4-1.1L49.5,25
			c0.4-0.5,1-0.8,1.6-0.7l10.3,0.6c1,0.1,1.7,0.9,1.7,1.8v7.2c0,0.6-0.3,1.2-0.8,1.5L41.7,48.5C41.4,48.7,41,48.8,40.7,48.8z
			 M42.5,40.5v3.2l16.9-10.8v-4.4L51.8,28L42.5,40.5z"/>
	</g>
	<path class="st1" d="M128.4,25.6C98.2,60.3,44.8,65,44.8,65L0.1,60.7"/>
	<g>
		<line class="st2" x1="79.8" y1="6.5" x2="79.8" y2="37.8"/>
		<circle class="st2" cx="79.8" cy="4.1" r="3.1"/>
		<polygon class="st2" points="96.1,10.6 96.1,6.9 79.8,11.2 79.8,21 86.4,19.2 86.4,22.9 102.7,18.5 102.7,8.8 		"/>
	</g>
</g>
</svg>
