<?xml version="1.0" encoding="utf-8"?>
<!-- Generator: Adobe Illustrator 19.2.1, SVG Export Plug-In . SVG Version: 6.00 Build 0)  -->
<svg version="1.1" id="Layer_1" xmlns="http://www.w3.org/2000/svg" xmlns:xlink="http://www.w3.org/1999/xlink" x="0px" y="0px"
	 viewBox="0 0 200 200" style="enable-background:new 0 0 200 200;" xml:space="preserve">
<g>
	<path d="M100,200c-26.7,0-51.8-10.4-70.6-29.3C10.4,151.8,0,126.7,0,100s10.4-51.8,29.3-70.6C48.2,10.4,73.3,0,100,0h5.3v69.7H100
		c-8,0-15.7,3.1-21.4,8.9c-5.7,5.7-8.9,13.4-8.9,21.4s3.1,15.7,8.9,21.4c5.7,5.7,13.4,8.9,21.4,8.9s15.6-3.1,21.4-8.9
		c5.7-5.7,8.9-13.4,8.9-21.4v-5.3H200v5.3c0,26.7-10.4,51.8-29.3,70.6C151.8,189.6,126.7,200,100,200z"/>
</g>
</svg>
