<svg width="1400" height="37" viewBox="0 0 1400 37" fill="none" xmlns="http://www.w3.org/2000/svg">
<path d="M124.992 21.4388C95.3937 19.7237 29.3314 6.43165 0 0H1398.91C1401.24 7.14627 1404.51 21.4388 1398.91 21.4388C1391.91 21.4388 1371.91 35.3741 1354.91 35.3741C1337.91 35.3741 1287.92 35.3741 1265.92 27.8705C1243.92 20.3669 1187.92 27.8705 1150.92 35.3741C1113.93 42.8776 1092.93 10.7194 1046.93 10.7194C933.939 10.7194 874.952 32.2929 835.945 35.3741C740.951 42.8776 664.956 11.3305 612.96 11.3305C544.916 11.3305 458.97 22.0499 432.972 22.0499C406.973 22.0499 353.977 27.8705 322.979 27.8705C285.968 27.8705 283.981 10.7194 220.985 10.7194C190.987 10.7194 161.989 23.5827 124.992 21.4388Z" transform="translate(-2 -0.00012207)" fill="white"/>
</svg>
