<svg width="1093" height="890" viewBox="0 0 1093 890" fill="none" xmlns="http://www.w3.org/2000/svg">
<path d="M2.39232 89.6633C-7.20768 36.8633 14.3923 11.6633 26.3923 5.66334C94.3923 -24.3367 104.392 71.6633 114.392 133.663C124.392 195.663 184.392 183.663 296.392 145.663C408.392 107.663 312.392 171.663 478.392 123.663C644.392 75.6633 680.392 189.663 704.392 209.663C728.392 229.663 718.392 253.663 704.392 271.663C690.392 289.663 624.392 319.663 552.392 253.663C480.392 187.663 428.392 249.663 398.392 271.663C368.392 293.663 406.392 383.663 478.392 417.663C550.392 451.663 572.392 361.663 624.392 395.663C676.392 429.663 684.392 451.663 680.392 509.663C676.392 567.663 630.392 591.663 602.392 595.663C574.392 599.663 532.392 605.663 552.392 683.663C572.392 761.663 676 805.336 638 855.336C600 905.336 484.392 815.663 488.392 769.663C492.392 723.663 442.392 683.663 442.392 651.663C442.392 619.663 468.392 585.663 442.392 551.663C416.392 517.663 362.392 525.663 330.392 529.663C298.392 533.663 296.392 569.663 266.392 561.663C236.392 553.663 252.392 501.663 284.392 487.663C316.392 473.663 310.392 393.663 296.392 371.663C282.392 349.663 252.392 331.663 214.392 371.663C176.392 411.663 208.392 447.663 184.392 451.663C160.392 455.663 118.392 385.663 128.392 331.663C138.392 277.663 84.3923 225.663 54.3923 171.663C24.3923 117.663 14.3923 155.663 2.39232 89.6633Z" fill="white"/>
<path d="M820.392 331.663C805.992 280.463 878.392 270.33 900.392 271.663C948.392 271.663 987.992 281.663 986.392 321.663C1056.39 371.663 980.392 371.663 924.392 395.663C932.392 419.663 838.392 395.663 820.392 331.663Z" fill="white"/>
<path d="M853.444 658.002C851.108 676.692 845.276 696.153 845 714.891C838.244 837.474 918.778 882.56 959.889 889.78C980.074 885.167 932.392 834 932.392 800C932.392 766 964.128 754.195 977 742C994.361 725.553 1088.15 790.76 1092.11 764.002C1095.72 739.668 1088 729.573 1069 713.336C1056.6 702.738 1040.39 696.895 1025.89 689.78C1013.46 683.684 1003.51 678.377 993.444 668.669C987.367 662.808 987.51 659.747 985.444 651.78C977.457 620.97 1035.7 603.471 1021 572.225C1015.14 559.762 990.885 544.904 977 541.78C949.062 535.494 919.703 556.979 901 575.336C876.878 599.011 857.837 622.864 853.444 658.002Z" fill="white"/>
</svg>
