<svg id="sticker-ty" data-name="Layer 1" xmlns="http://www.w3.org/2000/svg" xmlns:xlink="http://www.w3.org/1999/xlink" width="116" height="75" viewBox="-5 -5 116 75">
	<defs>
		<style>
			svg {
				filter: drop-shadow(0 2px 5px rgba(0,0,0,1));
			}
			.cls-1, .cls-3, .cls-6 {
				fill: none;
			}

			.cls-2 {
				clip-path: url(#clip-path);
			}

			.cls-3, .cls-6 {
				stroke: black;
			}

			.cls-3 {
				stroke-width: 1px;
			}

			.cls-4 {
				fill: #fff;
			}

			.cls-5 {
				fill: url(#jazdow-pattern);
			}

			.cls-6 {
				stroke-miterlimit: 10;
			}
		</style>
		<clipPath id="clip-path">
			<rect id="SVGID" class="cls-1" width="37.8" height="37.8"/>
		</clipPath>
		
		<pattern id="jazdow-pattern" data-name="432-K" width="37.8" height="37.8" patternUnits="userSpaceOnUse" viewBox="0 0 37.8 37.8">
			<rect class="cls-1" width="37.8" height="37.8"/>
			<g class="cls-2">
				<path class="cls-3" d="M17.441,3.358A21.578,21.578,0,0,0,15.269,0"/>
				<path class="cls-3" d="M23.5,0a19.979,19.979,0,0,1,.817,2.108c1.375,4.25,3.5,16.75,12,21.75"/>
				<path class="cls-3" d="M1.223,0A50.936,50.936,0,0,1,6.066,2.983"/>
				<path class="cls-3" d="M14.941,7.983C12.231,5.374,9.762,3.489,7.535,0"/>
				<path class="cls-3" d="M22.566,17.733a27.321,27.321,0,0,1-1.875-5.125c-1-3.375-6.625-9.5-8.75-11.5"/>
				<path class="cls-3" d="M27.332,0c0.638,1.673,1.243,3.415,1.733,4.983a23.861,23.861,0,0,0,5.875,9.5"/>
				<path class="cls-3" d="M33.066,2.608A22.425,22.425,0,0,1,30.88,0"/>
				<path class="cls-3" d="M35.191,0.983A30.525,30.525,0,0,1,37.8,3.166"/>
				<path class="cls-3" d="M13.941,19.983C9.6,15.205,5.441,8.164,0,3.119"/>
				<path class="cls-3" d="M3.566,18.816s0.334,1.5,1.667,6,6.583,9.49,6.583,9.49A22.987,22.987,0,0,1,15.25,37.8"/>
				<path class="cls-3" d="M17.941,29.557c2.059,2.676,4.116,5.1,5.547,8.243"/>
				<path class="cls-3" d="M0,37.049c0.395,0.263.79,0.512,1.185,0.751"/>
				<path class="cls-3" d="M5.941,34.932A26.909,26.909,0,0,0,7.521,37.8"/>
				<path class="cls-3" d="M27.323,37.8a44.1,44.1,0,0,0-2.883-6.368"/>
				<path class="cls-3" d="M25.566,22.432a45.806,45.806,0,0,1,7.25,9.625A14.78,14.78,0,0,0,37.8,37.082"/>
				<path class="cls-3" d="M31.941,5.233l1.875,1.875A25.092,25.092,0,0,1,37.8,12.047"/>
				<path class="cls-3" d="M19.816,1.108a29.3,29.3,0,0,1,1,3.625c1.25,2,3.75,11.375,6.125,14.375s9,10.25,9,10.25"/>
				<path class="cls-3" d="M35.191,17.483a43.53,43.53,0,0,1,2.61,3.494"/>
				<path class="cls-3" d="M3.066,17.233C1.9,15.186.972,13.494,0,11.967"/>
				<path class="cls-3" d="M5.566,33.483c-0.125-.625-2.5-5.5-3.25-8.125A17.644,17.644,0,0,0,0,20.9"/>
				<path class="cls-3" d="M1.441,8.858c5.542,4.541,4.379,12.816,10.125,20,5.3,6.625,7.625,7.5,7.625,7.5"/>
				<path class="cls-3" d="M7.566,4.483a42.743,42.743,0,0,1,5.875,7.875c1.75,3.5,7.25,13.75,9.875,17.5"/>
				<path class="cls-3" d="M10.066,19.733c1.834,2.333,1.334,2.5,6.667,8.666"/>
				<path class="cls-3" d="M17.233,11.983s2.5,6.5,3.5,7.666a29.962,29.962,0,0,1,2.208,3.157c1.625,1.25,3.625,6.25,5,9.75A24.3,24.3,0,0,0,30.862,37.8"/>
				<path class="cls-3" d="M36.566,29.983c0.442,0.477.85,0.945,1.235,1.408"/>
				<path class="cls-3" d="M4.191,36.483c-1.565-1.565-2.723-3.233-4.19-5"/>
			</g>
		</pattern>
	</defs>
	<title>sticker-ty</title>
	<g>
		<polygon class="cls-4" points="48.277 11.499 30.502 11.499 30.502 62.092 18.272 62.092 18.272 11.499 0.5 11.499 0.5 0.5 48.277 0.5 48.277 11.499"/>
		<polygon class="cls-5" points="48.277 11.499 30.502 11.499 30.502 62.092 18.272 62.092 18.272 11.499 0.5 11.499 0.5 0.5 48.277 0.5 48.277 11.499"/>
		<polygon class="cls-6" points="48.277 11.499 30.502 11.499 30.502 62.092 18.272 62.092 18.272 11.499 0.5 11.499 0.5 0.5 48.277 0.5 48.277 11.499"/>
	</g>
	<g>
		<polygon class="cls-4" points="84.8 34.638 84.8 62.092 72.831 62.092 72.831 34.638 52.858 0.5 65.881 0.5 78.813 22.408 91.66 0.5 104.682 0.5 84.8 34.638"/>
		<polygon class="cls-5" points="84.8 34.638 84.8 62.092 72.831 62.092 72.831 34.638 52.858 0.5 65.881 0.5 78.813 22.408 91.66 0.5 104.682 0.5 84.8 34.638"/>
		<polygon class="cls-6" points="84.8 34.638 84.8 62.092 72.831 62.092 72.831 34.638 52.858 0.5 65.881 0.5 78.813 22.408 91.66 0.5 104.682 0.5 84.8 34.638"/>
	</g>
</svg>
