<svg width="101" height="173" viewBox="0 0 101 173" fill="none" xmlns="http://www.w3.org/2000/svg">
<path d="M13.1063 2.36352C12.9556 2.21287 12.805 2.06223 12.579 1.83626C12.1271 1.30899 11.5998 0.857052 10.9972 0.480435C10.244 0.0284946 9.41543 -0.122152 8.73752 0.103818C8.21025 0.254465 7.83364 0.631082 7.68299 1.15835C7.68299 1.23367 7.60767 1.30899 7.53234 1.30899C7.45702 1.30899 7.3817 1.23367 7.3817 1.15835C7.23105 0.631082 6.62846 0.405111 6.17652 0.329788C5.27264 0.179141 4.44408 0.555759 3.91682 0.932376C2.93761 1.53496 2.2597 2.43884 1.58179 3.34273C1.05453 4.02064 0.602588 4.62322 0 5.22581C0.753234 5.22581 1.58179 5.07516 2.2597 4.77387C2.33503 4.77387 2.41035 4.77387 2.41035 4.77387C2.48567 4.84919 2.48567 4.92452 2.48567 4.92452L2.41035 5.22581C3.23891 4.99984 3.99214 4.77387 4.74538 4.39725H4.8207C4.89602 4.39725 4.89602 4.39725 4.97135 4.47258C5.04667 4.5479 5.04667 4.5479 5.04667 4.62322C4.97135 4.84919 4.89602 5.07516 4.74538 5.30114C5.27264 5.07516 5.7999 4.77387 6.32717 4.47258C6.40249 4.47258 6.47782 4.47258 6.47782 4.47258C6.55314 4.47258 6.55314 4.5479 6.55314 4.62322C6.55314 4.77387 6.55314 4.92452 6.47782 5.15049C6.85443 4.92452 7.15573 4.5479 7.45702 4.24661C7.45702 4.24661 7.45702 4.24661 7.53234 4.17128C7.53234 4.09596 7.60767 4.09596 7.60767 4.09596C7.68299 4.09596 7.75831 4.09596 7.83364 4.17128C8.05961 4.39725 8.28558 4.5479 8.51155 4.69855C8.51155 4.5479 8.51155 4.32193 8.43623 4.17128C8.43623 4.09596 8.43622 4.02064 8.51155 4.02064C8.58687 3.94531 8.6622 3.94531 8.73752 4.02064C9.26478 4.32193 9.86737 4.5479 10.47 4.69855C10.47 4.5479 10.47 4.32193 10.47 4.17128C10.47 4.09596 10.47 4.09596 10.5453 4.02064C10.6206 4.02064 10.6206 3.94531 10.6959 4.02064C11.4492 4.32193 12.2024 4.47258 13.031 4.5479C12.9556 4.39725 12.8803 4.24661 12.8803 4.09596C12.8803 4.02064 12.8803 3.94531 12.9556 3.94531C13.031 3.86999 13.031 3.86999 13.1063 3.86999C13.9348 4.02064 14.7634 4.09596 15.592 3.94531C14.5374 3.49337 13.7842 2.96611 13.1063 2.36352Z" transform="translate(21.7036 47.2896) rotate(-45)" fill="black"/>
<path d="M9.71825 13.031C15.0662 12.0518 19.2843 11.0725 19.2843 10.8466C19.209 10.6206 16.4974 10.9219 12.7312 11.5245L15.6688 10.9972L14.087 0L1.05606 2.33503L3.46641 13.1816L6.40402 12.6543C2.63785 13.4076 -0.0737923 14.0855 0.00153113 14.3115C0.00153113 14.5374 4.37029 14.0102 9.71825 13.031Z" transform="translate(7.07568 36.9246) rotate(-45)" fill="black"/>
<path d="M3.61552 0.67791L4.06747 0.301293L0.602587 5.74672e-07L0.527265 1.20517V1.2805C0.527265 1.50647 0.602588 1.65711 0.753234 1.80776C0.376617 1.95841 0.0753234 2.33503 0 2.78697C0 3.08826 0.0753231 3.38955 0.301293 3.61553V3.91682C0.22597 4.89602 0.979204 5.72458 1.95841 5.87523C2.93761 5.95055 3.8415 5.19732 3.91682 4.21811L3.99214 3.01294L3.16358 3.69085L2.48567 2.86229L2.41035 4.06746C2.41035 4.21811 2.2597 4.36876 2.10906 4.36876C1.95841 4.36876 1.80776 4.21811 1.80776 4.06746V3.76617C2.03373 3.61553 2.18438 3.31423 2.2597 3.01294C2.2597 2.63632 2.10906 2.2597 1.80776 2.03373L3.23891 2.10906L2.2597 0.979205L1.12985 0.903882V0.527265L3.61552 0.67791Z" transform="translate(41.2708 51.9434) rotate(-45)" fill="black"/>
<path d="M59.5808 0.359372C58.6016 -0.0925685 56.8692 -0.243216 55.2874 0.660666C54.2329 1.26325 53.0277 2.46843 52.8017 4.9541C52.8017 5.10475 52.8017 5.33072 52.8017 5.48137C50.6174 18.3617 35.628 20.3954 35.628 20.3954C35.628 20.3954 35.2514 20.6214 35.0254 20.4707L32.841 22.5045C28.171 29.2836 28.6982 36.7406 28.4723 44.4989C20.3373 39.6782 13.4076 30.8654 9.18946 23.1824L7.83364 24.7642C12.353 32.7485 19.7347 41.8626 28.3969 46.6833C28.3969 47.1352 28.3216 47.6625 28.3216 48.1144C19.3581 43.2937 11.6751 34.0289 6.92976 25.8187L6.55314 26.2706V26.1953C2.48567 30.7147 0 36.7406 0 43.2937C0 52.1066 4.51941 59.7896 11.2232 63.4051L12.2024 176.315H22.6724V65.5141C23.1243 65.4388 23.5762 65.3635 23.9529 65.2882V176.39H34.6488L35.402 60.6181C40.9006 56.7013 42.7084 50.9767 42.7084 41.4106C42.7084 39.5276 42.6331 37.7951 42.4824 36.0627C47.1525 31.6186 57.3965 20.4707 59.9575 7.43978C60.2588 7.06316 60.4847 6.61122 60.56 6.08395C60.6354 5.85798 60.6354 5.55669 60.7107 5.2554C61.0873 3.6736 61.5392 1.33858 59.5808 0.359372ZM7.90896 31.9952L7.60767 30.8654C10.018 34.7069 12.6543 37.7198 15.9686 41.1094C19.8854 45.1015 23.9529 48.1898 28.0956 50.2235C28.0203 50.8261 27.945 51.4287 27.8697 51.9559L11.4492 50.6754C11.5245 50.6754 8.73752 40.0548 7.90896 31.9952ZM59.9575 5.18007C59.8821 5.48137 59.8068 5.78266 59.8068 6.00863C59.8068 6.15928 59.7315 6.38525 59.6562 6.53589L53.555 5.55669C53.555 5.33072 53.555 5.18007 53.555 4.9541C53.7056 2.76972 54.8355 1.71519 55.664 1.26325C56.3419 0.886636 57.0952 0.735989 57.7731 0.735989C58.3757 0.735989 58.8276 0.811312 59.2042 1.03728C60.56 1.71519 60.4094 3.22166 59.9575 5.18007Z" transform="translate(4.9585 48.1208) rotate(-45)" fill="black"/>
<path d="M1.67807 0.855726C1.97937 0.780403 2.20534 0.855725 2.43131 1.00637C2.65728 1.15702 2.80792 1.38299 2.80792 1.68428C2.80792 1.91025 3.03389 2.0609 3.25987 1.98558C3.48584 1.98558 3.63648 1.75961 3.56116 1.53364C3.48584 1.0817 3.25986 0.629755 2.88325 0.328461C2.50663 0.0271676 2.05469 -0.0481555 1.52743 0.0271679C0.548222 0.177815 -0.129689 1.0817 0.0209574 2.0609C0.0209574 2.21155 0.246928 2.36219 0.397575 2.36219H0.472898C0.698869 2.36219 0.849515 2.13622 0.774192 1.91025C0.698868 1.45831 1.07548 0.931049 1.67807 0.855726Z" transform="translate(23.9265 39.3159) rotate(-45)" fill="black"/>
<path d="M1.67807 0.855725C1.97937 0.780402 2.20534 0.855726 2.43131 1.00637C2.65728 1.15702 2.80792 1.38299 2.80792 1.68428C2.80792 1.91025 3.0339 2.0609 3.25987 1.98558C3.48584 1.98558 3.63648 1.75961 3.56116 1.53364C3.48584 1.0817 3.25987 0.629755 2.88325 0.328461C2.50663 0.0271671 2.05469 -0.0481561 1.52743 0.0271674C0.548221 0.177814 -0.12969 1.0817 0.0209569 2.0609C0.0209569 2.21155 0.246927 2.36219 0.397574 2.36219H0.472898C0.698868 2.36219 0.849515 2.13622 0.774191 1.91025C0.698868 1.45831 1.07549 0.931049 1.67807 0.855725Z" transform="translate(21.583 42.5115) rotate(-45)" fill="black"/>
</svg>
