<svg width="1400" height="946" viewBox="0 0 1400 946" fill="none" xmlns="http://www.w3.org/2000/svg">
<path d="M0 945.123V3.12298C75.7835 -12.8809 69 35.123 124 90.1231C163.633 129.756 219.373 104.983 271.225 134.99C323.077 164.997 394.872 150.994 466.667 191.004C538.462 231.013 542.45 305.031 580.342 293.029C618.234 281.026 678.063 293.029 707.977 337.039C737.892 381.05 775.783 373.048 851.567 407.056C927.35 441.064 925.356 381.05 1019.09 493.077C1094.07 582.699 1042 917.123 1331 945.123C1162 846.123 1178.18 632.825 1183 595.123C1194 509.123 1116.81 441.064 1110.83 407.056C1104.84 373.048 1116.81 337.039 1162.68 273.024C1208.55 209.008 1294.3 217.01 1336.18 134.99C1369.69 69.3743 1392.69 70.3079 1400 78.9766V945.123H1331H0Z" transform="translate(0 0.876953)" fill="white"/>
</svg>
